<svg width="24" height="24" viewBox="0 0 24 24" fill="none" xmlns="http://www.w3.org/2000/svg">
<path d="M12.5004 2C8.22484 2 4 4.74072 4 9.17653C4 11.9974 5.65007 13.6002 6.65011 13.6002C7.06279 13.6002 7.30014 12.4942 7.30014 12.182C7.30014 11.8095 6.31276 11.0159 6.31276 9.46503C6.31276 6.24347 8.86287 3.95922 12.163 3.95922C15.0005 3.95922 17.1005 5.51005 17.1005 8.35912C17.1005 10.4869 16.2132 14.4778 13.3377 14.4778C12.3003 14.4778 11.4123 13.7566 11.4123 12.7231C11.4123 11.2082 12.5124 9.74198 12.5124 8.17897C12.5124 5.52672 8.59952 6.00755 8.59952 9.21307C8.59952 9.88623 8.68686 10.6312 8.99954 11.2447C8.42418 13.6252 7.24947 17.1711 7.24947 19.6233C7.24947 20.3805 7.36214 21.1261 7.43681 21.8832C7.57815 22.0358 7.50748 22.0198 7.72416 21.9435C9.82424 19.1784 9.74957 18.638 10.6996 15.0196C11.2123 15.9575 12.537 16.462 13.5871 16.462C18.0119 16.462 20 12.3147 20 8.57645C20 4.59776 16.4245 2.00128 12.4997 2.00128L12.5004 2Z" fill="#57C2A7"/>
</svg>
