<svg width="16" height="16" viewBox="0 0 16 16" fill="none" xmlns="http://www.w3.org/2000/svg">
<path d="M8 0.666748C9.5913 0.666748 11.1174 1.29889 12.2426 2.42411C13.3679 3.54933 14 5.07545 14 6.66675C14 9.15075 12.1067 11.7534 8.4 14.5334C8.2846 14.62 8.14425 14.6667 8 14.6667C7.85575 14.6667 7.7154 14.62 7.6 14.5334C3.89333 11.7534 2 9.15075 2 6.66675C2 5.07545 2.63214 3.54933 3.75736 2.42411C4.88258 1.29889 6.4087 0.666748 8 0.666748ZM8 4.66675C7.46957 4.66675 6.96086 4.87746 6.58579 5.25253C6.21071 5.62761 6 6.13632 6 6.66675C6 7.19718 6.21071 7.70589 6.58579 8.08096C6.96086 8.45603 7.46957 8.66675 8 8.66675C8.53043 8.66675 9.03914 8.45603 9.41421 8.08096C9.78929 7.70589 10 7.19718 10 6.66675C10 6.13632 9.78929 5.62761 9.41421 5.25253C9.03914 4.87746 8.53043 4.66675 8 4.66675Z" fill="#57C2A7"/>
</svg>
